<svg width="31" height="31" viewBox="0 0 31 31" fill="none" xmlns="http://www.w3.org/2000/svg">
<circle cx="15.5" cy="15.5" r="15.5" transform="matrix(-1 0 0 1 31 0)" fill="#9C54D5"/>
<path fill-rule="evenodd" clip-rule="evenodd" d="M12.7901 11.7026L12.95 11.3142C13.2586 10.5648 13.9889 10.0757 14.7994 10.0757H17.4106C18.2211 10.0757 18.9514 10.5648 19.26 11.3142L19.4199 11.7026H20C21.6569 11.7026 23 13.0457 23 14.7026V17.9992C23 19.656 21.6569 20.9992 20 20.9992H12C10.3431 20.9992 9 19.656 9 17.9992L9 14.7026C9 13.0457 10.3431 11.7026 12 11.7026H12.7901Z" fill="#C2CCDE" fill-opacity="0.25"/>
<path d="M12.7901 11.7026V12.2026H13.1249L13.2524 11.893L12.7901 11.7026ZM12.95 11.3142L13.4123 11.5046L12.95 11.3142ZM19.26 11.3142L19.7223 11.1239V11.1239L19.26 11.3142ZM19.4199 11.7026L18.9575 11.893L19.085 12.2026H19.4199V11.7026ZM13.2524 11.893L13.4123 11.5046L12.4876 11.1239L12.3277 11.5122L13.2524 11.893ZM13.4123 11.5046C13.6438 10.9425 14.1915 10.5757 14.7994 10.5757V9.57568C13.7863 9.57568 12.8734 10.1871 12.4876 11.1239L13.4123 11.5046ZM14.7994 10.5757L17.4106 10.5757V9.57568H14.7994V10.5757ZM17.4106 10.5757C18.0184 10.5757 18.5662 10.9425 18.7976 11.5046L19.7223 11.1239C19.3366 10.1871 18.4237 9.57568 17.4106 9.57568V10.5757ZM18.7976 11.5046L18.9575 11.893L19.8822 11.5122L19.7223 11.1239L18.7976 11.5046ZM19.4199 12.2026H20V11.2026H19.4199V12.2026ZM20 12.2026C21.3807 12.2026 22.5 13.3219 22.5 14.7026L23.5 14.7026C23.5 12.7696 21.933 11.2026 20 11.2026V12.2026ZM22.5 14.7026V17.9992L23.5 17.9992V14.7026L22.5 14.7026ZM22.5 17.9992C22.5 19.3799 21.3807 20.4992 20 20.4992V21.4992C21.933 21.4992 23.5 19.9322 23.5 17.9992L22.5 17.9992ZM20 20.4992H12V21.4992H20V20.4992ZM12 20.4992C10.6193 20.4992 9.5 19.3799 9.5 17.9992H8.5C8.5 19.9322 10.067 21.4992 12 21.4992V20.4992ZM9.5 17.9992L9.5 14.7026H8.5L8.5 17.9992H9.5ZM9.5 14.7026C9.5 13.3219 10.6193 12.2026 12 12.2026V11.2026C10.067 11.2026 8.5 12.7696 8.5 14.7026H9.5ZM12 12.2026H12.7901V11.2026H12V12.2026Z" fill="white"/>
<path d="M14.5665 13.6341C15.4618 13.1536 16.5382 13.1536 17.4335 13.6341L17.5976 13.7222C18.4803 14.196 19.0311 15.1167 19.0311 16.1185V16.1185C19.0311 17.1204 18.4803 18.0411 17.5976 18.5148L17.4335 18.603C16.5382 19.0835 15.4618 19.0835 14.5665 18.603L14.4024 18.5148C13.5197 18.0411 12.9689 17.1204 12.9689 16.1185V16.1185C12.9689 15.1167 13.5197 14.196 14.4024 13.7222L14.5665 13.6341Z" stroke="white" stroke-linecap="round" stroke-linejoin="round"/>
</svg>
