<svg width="20" height="20" viewBox="0 0 20 20" fill="none" xmlns="http://www.w3.org/2000/svg">
<circle cx="10" cy="10" r="9.5" fill="#F5EFFB" stroke="#9C54D5"/>
<path d="M8.79818 6.44272L8.47004 7.3H6.0999C5.85137 7.3 5.6499 7.50147 5.6499 7.75V13.15C5.6499 13.3985 5.85137 13.6 6.0999 13.6H9.23113C9.07033 13.5378 8.91318 13.4628 8.76115 13.375C7.71615 12.7717 7.0724 11.6567 7.0724 10.45C7.0724 9.24333 7.71615 8.12833 8.76115 7.52499C9.80615 6.92166 11.0936 6.92166 12.1387 7.52499C13.1837 8.12833 13.8274 9.24333 13.8274 10.45C13.8274 11.6567 13.1837 12.7717 12.1387 13.375C11.9866 13.4628 11.8295 13.5378 11.6687 13.6H13.5999C13.8484 13.6 14.0499 13.3985 14.0499 13.15V7.75C14.0499 7.50147 13.8484 7.3 13.5999 7.3H12.4479L12.1198 6.44272C12.0753 6.32663 11.9639 6.24996 11.8396 6.24996H9.07836C8.95405 6.24996 8.84262 6.32663 8.79818 6.44272Z" fill="#C2CCDE" fill-opacity="0.25"/>
<path d="M7.58717 7.29999H6.41783L6.49747 6.93589C6.52759 6.79816 6.64955 6.69999 6.79054 6.69999H7.21446C7.35544 6.69999 7.4774 6.79816 7.50753 6.93589L7.58717 7.29999Z" fill="#C2CCDE" fill-opacity="0.25"/>
<path d="M11.6244 6.24999H9.28575L9.46958 5.82976C9.51736 5.72056 9.62524 5.64999 9.74444 5.64999H11.1657C11.2849 5.64999 11.3928 5.72056 11.4406 5.82976L11.6244 6.24999Z" fill="#C2CCDE" fill-opacity="0.25"/>
<path d="M8.76115 7.52499C9.80615 6.92166 11.0936 6.92166 12.1387 7.52499C13.1837 8.12833 13.8274 9.24333 13.8274 10.45C13.8274 11.6567 13.1837 12.7717 12.1387 13.375C11.0936 13.9783 9.80615 13.9783 8.76115 13.375C7.71615 12.7717 7.0724 11.6567 7.0724 10.45C7.0724 9.24333 7.71615 8.12833 8.76115 7.52499Z" fill="#C2CCDE" fill-opacity="0.25"/>
<path d="M9.41067 8.65C10.0537 8.27872 10.8461 8.27872 11.4891 8.65C12.1322 9.02128 12.5284 9.70744 12.5284 10.45C12.5284 11.1926 12.1322 11.8787 11.4891 12.25C10.8461 12.6213 10.0537 12.6213 9.41067 12.25C8.76759 11.8787 8.37144 11.1926 8.37144 10.45C8.37144 9.70744 8.76759 9.02128 9.41067 8.65Z" fill="#C2CCDE" fill-opacity="0.25"/>
<path d="M8.76115 13.375C8.91318 13.4628 9.07033 13.5378 9.23113 13.6H6.0999C5.85137 13.6 5.6499 13.3985 5.6499 13.15V7.75C5.6499 7.50147 5.85137 7.3 6.0999 7.3H8.47004L8.79818 6.44272C8.84262 6.32663 8.95405 6.24996 9.07836 6.24996H11.8396C11.9639 6.24996 12.0753 6.32663 12.1198 6.44272L12.4479 7.3H13.5999C13.8484 7.3 14.0499 7.50147 14.0499 7.75V13.15C14.0499 13.3985 13.8484 13.6 13.5999 13.6H11.6687C11.8295 13.5378 11.9866 13.4628 12.1387 13.375M8.76115 13.375C7.71615 12.7717 7.0724 11.6567 7.0724 10.45C7.0724 9.24333 7.71615 8.12833 8.76115 7.52499C9.80615 6.92166 11.0936 6.92166 12.1387 7.52499C13.1837 8.12833 13.8274 9.24333 13.8274 10.45C13.8274 11.6567 13.1837 12.7717 12.1387 13.375M8.76115 13.375C9.80615 13.9783 11.0936 13.9783 12.1387 13.375M9.46148 10.7708C9.42827 10.6686 9.41067 10.5605 9.41067 10.4498C9.41067 10.0786 9.60871 9.73558 9.9302 9.54997C10.0909 9.45719 10.2702 9.41079 10.4496 9.41077M7.58717 7.29999H6.41783L6.49747 6.93589C6.52759 6.79816 6.64955 6.69999 6.79054 6.69999H7.21446C7.35544 6.69999 7.4774 6.79816 7.50753 6.93589L7.58717 7.29999ZM11.6244 6.24999H9.28575L9.46958 5.82976C9.51736 5.72056 9.62524 5.64999 9.74444 5.64999H11.1657C11.2849 5.64999 11.3928 5.72056 11.4406 5.82976L11.6244 6.24999ZM8.37144 10.45C8.37144 9.70744 8.76759 9.02128 9.41067 8.65C10.0537 8.27872 10.8461 8.27872 11.4891 8.65C12.1322 9.02128 12.5284 9.70744 12.5284 10.45C12.5284 11.1926 12.1322 11.8787 11.4891 12.25C10.8461 12.6213 10.0537 12.6213 9.41067 12.25C8.76759 11.8787 8.37144 11.1926 8.37144 10.45Z" stroke="#414141" stroke-opacity="0.8" stroke-width="0.5" stroke-linecap="round" stroke-linejoin="round"/>
</svg>
