<svg width="16" height="16" viewBox="0 0 16 16" fill="none" xmlns="http://www.w3.org/2000/svg">
<path fill-rule="evenodd" clip-rule="evenodd" d="M7.99992 1.33301C11.6819 1.33301 14.6666 4.31767 14.6666 7.99967C14.6666 11.6817 11.6819 14.6663 7.99992 14.6663C4.31792 14.6663 1.33325 11.6817 1.33325 7.99967C1.33325 4.31767 4.31792 1.33301 7.99992 1.33301ZM5.54192 9.85367C4.84592 9.29701 3.90192 9.08167 2.80325 9.20567C3.03644 10.2074 3.55395 11.1204 4.29357 11.8351C5.0332 12.5498 5.96347 13.0357 6.97259 13.2343C6.84392 11.4843 6.26859 10.4337 5.54192 9.85367ZM10.4579 9.85367C9.73125 10.435 9.15592 11.4843 9.02725 13.2337C10.0362 13.0349 10.9662 12.5491 11.7057 11.8346C12.4452 11.12 12.9627 10.2072 13.1959 9.20567C12.0979 9.08167 11.1539 9.29701 10.4579 9.85367ZM7.99992 6.66634C7.36659 6.66634 6.84525 6.91301 6.46259 7.18501L6.13059 7.41634C5.78125 7.65301 5.37992 7.89634 4.92992 8.05634C5.45538 8.21367 5.94579 8.4703 6.37459 8.81234C7.12392 9.41234 7.67659 10.2703 7.99992 11.385C8.32325 10.2703 8.87592 9.41167 9.62525 8.81234C10.0541 8.47053 10.5445 8.21412 11.0699 8.05701C10.6199 7.89634 10.2186 7.65301 9.86925 7.41634L9.53725 7.18501C9.15459 6.91301 8.63325 6.66634 7.99992 6.66634ZM7.99992 2.66634C6.75737 2.66651 5.55384 3.10036 4.59698 3.89304C3.64011 4.68572 2.98992 5.78752 2.75859 7.00834L2.72992 7.17367L4.20325 6.87901C4.59125 6.80167 4.95992 6.59701 5.37192 6.31901L5.68992 6.09767C6.22125 5.72034 7.00859 5.33301 7.99992 5.33301C8.92525 5.33301 9.67259 5.67034 10.1999 6.02234L10.6279 6.31901C10.9879 6.56234 11.3159 6.74901 11.6519 6.84434L11.7966 6.87901L13.2699 7.17367C13.0727 5.91763 12.4334 4.7733 11.4672 3.9469C10.501 3.1205 9.27135 2.66637 7.99992 2.66634Z" fill="#414141" fill-opacity="0.8"/>
</svg>
