<svg width="24" height="24" viewBox="0 0 24 24" fill="none" xmlns="http://www.w3.org/2000/svg">
<path d="M15.0281 5.71373C16.1027 5.20978 17.4228 5.40171 18.3105 6.2894C19.1981 7.17708 19.3901 8.49712 18.8861 9.57176C20.0024 9.97531 20.8 11.0444 20.8 12.2998C20.8 13.5552 20.0024 14.6243 18.8861 15.0278C19.3901 16.1025 19.1981 17.4225 18.3105 18.3102C17.4228 19.1979 16.1027 19.3898 15.0281 18.8859C14.6245 20.0021 13.5554 20.7998 12.3 20.7998C11.0447 20.7998 9.97555 20.0021 9.57201 18.8859C8.49736 19.3898 7.17732 19.1979 6.28964 18.3102C5.40196 17.4225 5.21002 16.1025 5.71397 15.0278C4.59774 14.6243 3.80005 13.5552 3.80005 12.2998C3.80005 11.0444 4.59774 9.97531 5.71397 9.57176C5.21002 8.49712 5.40196 7.17708 6.28964 6.2894C7.17732 5.40171 8.49736 5.20978 9.572 5.71373C9.97555 4.59749 11.0447 3.7998 12.3 3.7998C13.5554 3.7998 14.6245 4.59749 15.0281 5.71373Z" fill="#C2CCDE" fill-opacity="0.25"/>
<path d="M9.15544 10.9498C8.74272 10.537 8.74272 9.8679 9.15544 9.45519C9.56815 9.04247 10.2373 9.04247 10.65 9.45519C11.0627 9.8679 11.0627 10.537 10.65 10.9498C10.2373 11.3625 9.56815 11.3625 9.15544 10.9498Z" fill="#C2CCDE" fill-opacity="0.25"/>
<path d="M13.3402 15.1345C12.9275 14.7218 12.9275 14.0527 13.3402 13.64C13.7529 13.2273 14.4221 13.2273 14.8348 13.64C15.2475 14.0527 15.2475 14.7218 14.8348 15.1345C14.4221 15.5473 13.7529 15.5473 13.3402 15.1345Z" fill="#C2CCDE" fill-opacity="0.25"/>
<path d="M15.2084 8.93209L8.63234 15.5082M18.3105 6.2894C17.4228 5.40171 16.1027 5.20978 15.0281 5.71373C14.6245 4.59749 13.5554 3.7998 12.3 3.7998C11.0447 3.7998 9.97555 4.59749 9.572 5.71373C8.49736 5.20978 7.17732 5.40171 6.28964 6.2894C5.40196 7.17708 5.21002 8.49712 5.71397 9.57176C4.59774 9.97531 3.80005 11.0444 3.80005 12.2998C3.80005 13.5552 4.59774 14.6243 5.71397 15.0278C5.21002 16.1025 5.40196 17.4225 6.28964 18.3102C7.17732 19.1979 8.49736 19.3898 9.57201 18.8859C9.97555 20.0021 11.0447 20.7998 12.3 20.7998C13.5554 20.7998 14.6245 20.0021 15.0281 18.8859C16.1027 19.3898 17.4228 19.1979 18.3105 18.3102C19.1981 17.4225 19.3901 16.1025 18.8861 15.0278C20.0024 14.6243 20.8 13.5552 20.8 12.2998C20.8 11.0444 20.0024 9.97531 18.8861 9.57176C19.3901 8.49712 19.1981 7.17708 18.3105 6.2894ZM10.65 10.9498C10.2373 11.3625 9.56815 11.3625 9.15544 10.9498C8.74272 10.537 8.74272 9.8679 9.15544 9.45519C9.56815 9.04247 10.2373 9.04247 10.65 9.45519C11.0627 9.8679 11.0627 10.537 10.65 10.9498ZM14.8348 15.1345C14.4221 15.5473 13.7529 15.5473 13.3402 15.1345C12.9275 14.7218 12.9275 14.0527 13.3402 13.64C13.7529 13.2273 14.4221 13.2273 14.8348 13.64C15.2475 14.0527 15.2475 14.7218 14.8348 15.1345Z" stroke="#414141" stroke-opacity="0.8" stroke-linecap="round" stroke-linejoin="round"/>
</svg>
