<svg width="40" height="40" viewBox="0 0 40 40" fill="none" xmlns="http://www.w3.org/2000/svg">
<circle cx="20" cy="20" r="20" fill="#C8E6C9"/>
<path d="M17.846 24.3796L15.3776 21.9112C15.1285 21.6621 14.7026 21.8385 14.7026 22.1908L14.7026 24.4546C14.7026 24.786 14.9712 25.0546 15.3026 25.0546L17.5664 25.0546C17.9187 25.0546 18.0951 24.6287 17.846 24.3796Z" fill="#C2CCDE" fill-opacity="0.25"/>
<path d="M16.6118 23.1454L24.8849 14.8723M15.3776 21.9112L17.846 24.3796C18.0951 24.6287 17.9187 25.0546 17.5664 25.0546L15.3026 25.0546C14.9712 25.0546 14.7026 24.786 14.7026 24.4546L14.7026 22.1908C14.7026 21.8385 15.1285 21.6621 15.3776 21.9112Z" stroke="#388E3D" stroke-linecap="round" stroke-linejoin="round"/>
</svg>
