<svg width="24" height="24" viewBox="0 0 24 24" fill="none" xmlns="http://www.w3.org/2000/svg">
<path d="M12 3.6001L12.9405 3.65291L13.8692 3.8107L14.7743 4.07148L15.6446 4.43196L16.469 4.88761L17.2373 5.43271L17.9397 6.0604L18.5674 6.76278L19.1125 7.53103L19.5681 8.35547L19.9286 9.22575L20.1894 10.1309L20.3472 11.0596L20.4 12.0001L20.3472 12.9406L20.1894 13.8693L19.9286 14.7744L19.5681 15.6447L19.1125 16.4692L18.5674 17.2374L17.9397 17.9398L17.2373 18.5675L16.469 19.1126L15.6446 19.5682L14.7743 19.9287L13.8692 20.1895L12.9405 20.3473L12 20.4001L11.0595 20.3473L10.1308 20.1895L9.22563 19.9287L8.35535 19.5682L7.53091 19.1126L6.76266 18.5675L6.06028 17.9398L5.43259 17.2374L4.88749 16.4692L4.43184 15.6447L4.07136 14.7744L3.81058 13.8693L3.65279 12.9406L3.59998 12.0001L3.65279 11.0596L3.81058 10.1309L4.07136 9.22575L4.43184 8.35547L4.88749 7.53103L5.43259 6.76278L6.06028 6.0604L6.76266 5.43271L7.53091 4.88761L8.35535 4.43196L9.22563 4.07148L10.1308 3.8107L11.0595 3.65291L12 3.6001Z" fill="#C2CCDE" fill-opacity="0.25"/>
<path d="M12 13.9201V13.806C12 13.1059 12.3689 12.4576 12.9708 12.1001L13.4925 11.7901C14.2411 11.3453 14.7 10.539 14.7 9.66821C14.7 8.30511 13.595 7.2001 12.2319 7.2001H12C10.5088 7.2001 9.29998 8.40893 9.29998 9.9001V10.0526M12 16.0801V16.5601M12 3.6001L12.9405 3.65291L13.8692 3.8107L14.7743 4.07148L15.6446 4.43196L16.469 4.88761L17.2373 5.43271L17.9397 6.0604L18.5674 6.76278L19.1125 7.53103L19.5681 8.35547L19.9286 9.22575L20.1894 10.1309L20.3472 11.0596L20.4 12.0001L20.3472 12.9406L20.1894 13.8693L19.9286 14.7744L19.5681 15.6447L19.1125 16.4692L18.5674 17.2374L17.9397 17.9398L17.2373 18.5675L16.469 19.1126L15.6446 19.5682L14.7743 19.9287L13.8692 20.1895L12.9405 20.3473L12 20.4001L11.0595 20.3473L10.1308 20.1895L9.22563 19.9287L8.35535 19.5682L7.53091 19.1126L6.76266 18.5675L6.06028 17.9398L5.43259 17.2374L4.88749 16.4692L4.43184 15.6447L4.07136 14.7744L3.81058 13.8693L3.65279 12.9406L3.59998 12.0001L3.65279 11.0596L3.81058 10.1309L4.07136 9.22575L4.43184 8.35547L4.88749 7.53103L5.43259 6.76278L6.06028 6.0604L6.76266 5.43271L7.53091 4.88761L8.35535 4.43196L9.22563 4.07148L10.1308 3.8107L11.0595 3.65291L12 3.6001Z" stroke="#414141" stroke-linecap="round" stroke-linejoin="round"/>
</svg>
