<svg width="24" height="24" viewBox="0 0 24 24" fill="none" xmlns="http://www.w3.org/2000/svg">
<path fill-rule="evenodd" clip-rule="evenodd" d="M12 5.40039L18 10.2004H17C17.5523 10.2004 18 10.6481 18 11.2004V17.6004C18 18.1527 17.5523 18.6004 17 18.6004H7C6.44772 18.6004 6 18.1527 6 17.6004L6 11.2004C6 10.6481 6.44772 10.2004 7 10.2004H6L12 5.40039ZM13.8 15.0004L13.8 11.4004H10.2L10.2 15.0004L13.8 15.0004Z" fill="#9C54D5"/>
<path d="M20.2501 12.0004L19.3501 11.2804L12.0001 5.40039L4.65012 11.2804L3.75012 12.0004" stroke="#9C54D5" stroke-width="3" stroke-linecap="round" stroke-linejoin="round"/>
<path fill-rule="evenodd" clip-rule="evenodd" d="M16.8751 9.3002H18.6001V5.7002L12.6001 5.7002V5.8802L16.8751 9.3002Z" fill="#9C54D5"/>
<path d="M18.6001 9.3002V10.3002C19.1524 10.3002 19.6001 9.85248 19.6001 9.3002L18.6001 9.3002ZM16.8751 9.3002L16.2504 10.0811C16.4277 10.2229 16.648 10.3002 16.8751 10.3002V9.3002ZM18.6001 5.7002H19.6001C19.6001 5.14791 19.1524 4.7002 18.6001 4.7002V5.7002ZM12.6001 5.7002V4.7002C12.0478 4.7002 11.6001 5.14791 11.6001 5.7002H12.6001ZM12.6001 5.8802H11.6001C11.6001 6.18398 11.7382 6.47129 11.9754 6.66106L12.6001 5.8802ZM18.6001 8.3002H16.8751V10.3002H18.6001V8.3002ZM17.6001 5.7002V9.3002L19.6001 9.3002V5.7002H17.6001ZM12.6001 6.7002L18.6001 6.7002V4.7002L12.6001 4.7002V6.7002ZM13.6001 5.8802V5.7002H11.6001V5.8802H13.6001ZM11.9754 6.66106L16.2504 10.0811L17.4998 8.51933L13.2248 5.09933L11.9754 6.66106Z" fill="#9C54D5"/>
</svg>
