<svg width="18" height="17" viewBox="0 0 18 17" fill="none" xmlns="http://www.w3.org/2000/svg">
<path fill-rule="evenodd" clip-rule="evenodd" d="M8.84384 2.50049C11.286 2.50049 13.2658 4.51674 13.2658 6.95893C13.2658 7.91955 12.9564 8.86683 12.3834 9.63785L8.85257 14.3887C8.84822 14.3946 8.83946 14.3946 8.8351 14.3887L5.3043 9.63785C4.7313 8.86683 4.42187 7.91955 4.42187 6.95893C4.42188 4.51674 6.40166 2.50049 8.84384 2.50049ZM9.74546 5.06814L9.6874 5.04126C9.15229 4.79359 8.53538 4.79359 8.00028 5.04126L7.94222 5.06814C7.42004 5.30982 7.03761 5.77771 6.90467 6.33753C6.76843 6.91123 6.90976 7.5156 7.28629 7.96938L7.30455 7.99139C7.67195 8.43418 8.21744 8.69038 8.7928 8.69038H8.89487C9.47024 8.69038 10.0157 8.43418 10.3831 7.99139L10.4014 7.96938C10.7779 7.5156 10.9192 6.91123 10.783 6.33753C10.6501 5.77771 10.2676 5.30982 9.74546 5.06814Z" fill="#58A99D"/>
<path d="M12.3834 9.63785L13.5873 10.5326V10.5326L12.3834 9.63785ZM8.85257 14.3887L7.64865 13.494L7.64863 13.494L8.85257 14.3887ZM8.8351 14.3887L10.039 13.494L10.039 13.494L8.8351 14.3887ZM5.3043 9.63785L6.50823 8.7431H6.50823L5.3043 9.63785ZM9.6874 5.04126L10.3175 3.68L10.3175 3.68L9.6874 5.04126ZM9.74546 5.06814L9.1154 6.4294L9.11541 6.4294L9.74546 5.06814ZM8.00028 5.04126L8.63033 6.40252L8.63034 6.40252L8.00028 5.04126ZM7.94222 5.06814L7.31216 3.70688L7.31216 3.70688L7.94222 5.06814ZM6.90467 6.33753L8.36408 6.68411V6.68411L6.90467 6.33753ZM7.28629 7.96938L6.13192 8.92721L6.13192 8.92721L7.28629 7.96938ZM7.30455 7.99139L8.45892 7.03357L8.45892 7.03356L7.30455 7.99139ZM10.3831 7.99139L11.5375 8.94922L11.5375 8.94921L10.3831 7.99139ZM10.4014 7.96938L9.24702 7.01156L9.24701 7.01157L10.4014 7.96938ZM10.783 6.33753L9.3236 6.68411H9.3236L10.783 6.33753ZM14.7658 6.95893C14.7658 3.70439 12.1304 1.00049 8.84384 1.00049V4.00049C10.4416 4.00049 11.7658 5.3291 11.7658 6.95893L14.7658 6.95893ZM13.5873 10.5326C14.3551 9.4995 14.7658 8.23762 14.7658 6.95893L11.7658 6.95893C11.7658 7.60149 11.5577 8.23417 11.1794 8.7431L13.5873 10.5326ZM10.0565 15.2835L13.5873 10.5326L11.1794 8.7431L7.64865 13.494L10.0565 15.2835ZM7.63116 15.2835C8.23527 16.0963 9.45241 16.0963 10.0565 15.2835L7.64863 13.494C8.24404 12.6928 9.44364 12.6928 10.039 13.494L7.63116 15.2835ZM4.10038 10.5326L7.63118 15.2835L10.039 13.494L6.50823 8.7431L4.10038 10.5326ZM2.92187 6.95893C2.92187 8.23762 3.3326 9.4995 4.10038 10.5326L6.50823 8.7431C6.12999 8.23417 5.92187 7.60149 5.92187 6.95893H2.92187ZM8.84384 1.00049C5.55725 1.00049 2.92188 3.70439 2.92187 6.95893H5.92187C5.92188 5.3291 7.24606 4.00049 8.84384 4.00049V1.00049ZM9.05734 6.40252L9.1154 6.4294L10.3755 3.70688L10.3175 3.68L9.05734 6.40252ZM8.63034 6.40252C8.76577 6.33984 8.92191 6.33984 9.05734 6.40252L10.3175 3.68C9.38268 3.24735 8.305 3.24735 7.37023 3.68L8.63034 6.40252ZM8.57227 6.4294L8.63033 6.40252L7.37023 3.68L7.31216 3.70688L8.57227 6.4294ZM8.36408 6.68411C8.39076 6.57178 8.46749 6.47789 8.57227 6.4294L7.31216 3.70688C6.3726 4.14175 5.68447 4.98364 5.44526 5.99095L8.36408 6.68411ZM8.44065 7.01156C8.3651 6.9205 8.33674 6.79923 8.36408 6.68411L5.44526 5.99095C5.20011 7.02323 5.45442 8.1107 6.13192 8.92721L8.44065 7.01156ZM8.45892 7.03356L8.44065 7.01155L6.13192 8.92721L6.15018 8.94922L8.45892 7.03356ZM8.7928 7.19038C8.66372 7.19038 8.54134 7.1329 8.45892 7.03357L6.15018 8.94922C6.80256 9.73546 7.77115 10.1904 8.7928 10.1904V7.19038ZM8.89487 7.19038H8.7928V10.1904H8.89487V7.19038ZM9.22876 7.03357C9.14633 7.13291 9.02396 7.19038 8.89487 7.19038V10.1904C9.91652 10.1904 10.8851 9.73546 11.5375 8.94922L9.22876 7.03357ZM9.24701 7.01157L9.22875 7.03358L11.5375 8.94921L11.5558 8.9272L9.24701 7.01157ZM9.3236 6.68411C9.35093 6.79923 9.32257 6.9205 9.24702 7.01156L11.5558 8.92721C12.2333 8.1107 12.4876 7.02323 12.2424 5.99095L9.3236 6.68411ZM9.11541 6.4294C9.22018 6.47789 9.29692 6.57178 9.3236 6.68411L12.2424 5.99095C12.0032 4.98364 11.3151 4.14175 10.3755 3.70688L9.11541 6.4294Z" fill="#58A99D"/>
</svg>
