<svg width="20" height="20" viewBox="0 0 20 20" fill="none" xmlns="http://www.w3.org/2000/svg">
<path fill-rule="evenodd" clip-rule="evenodd" d="M10 3.49414C12.7614 3.49414 15 5.77396 15 8.53538C15 9.62158 14.6501 10.6927 14.0022 11.5645L10.0099 16.9364C10.005 16.943 9.99504 16.943 9.99012 16.9364L5.99778 11.5645C5.34987 10.6927 5 9.62158 5 8.53538C5 5.77396 7.23857 3.49414 10 3.49414ZM11.0195 6.39743L10.9538 6.36704C10.3488 6.087 9.65122 6.087 9.04617 6.36704L8.98052 6.39743C8.39009 6.67071 7.95767 7.19976 7.80734 7.83276C7.65329 8.48145 7.8131 9.16482 8.23884 9.67792L8.25949 9.70281C8.67492 10.2035 9.29171 10.4932 9.94229 10.4932H10.0577C10.7083 10.4932 11.3251 10.2035 11.7405 9.70281L11.7612 9.67792C12.1869 9.16482 12.3467 8.48145 12.1927 7.83276C12.0423 7.19976 11.6099 6.67071 11.0195 6.39743Z" fill="#F44336"/>
<path d="M14.0022 11.5645L15.2061 12.4592H15.2061L14.0022 11.5645ZM10.0099 16.9364L11.2138 17.8312L11.2138 17.8311L10.0099 16.9364ZM9.99012 16.9364L8.7862 17.8311L8.78622 17.8312L9.99012 16.9364ZM5.99778 11.5645L4.79385 12.4592H4.79385L5.99778 11.5645ZM10.9538 6.36704L10.3238 7.7283L10.3238 7.7283L10.9538 6.36704ZM11.0195 6.39743L11.6495 5.03617L11.6495 5.03617L11.0195 6.39743ZM9.04617 6.36704L9.67622 7.7283L9.67623 7.7283L9.04617 6.36704ZM8.98052 6.39743L8.35047 5.03617L8.35046 5.03617L8.98052 6.39743ZM7.80734 7.83276L9.26675 8.17934L9.26675 8.17934L7.80734 7.83276ZM8.23884 9.67792L7.08448 10.6358L7.08448 10.6358L8.23884 9.67792ZM8.25949 9.70281L9.41386 8.74498L9.41385 8.74497L8.25949 9.70281ZM11.7405 9.70281L10.5861 8.74498L10.5861 8.74498L11.7405 9.70281ZM11.7612 9.67792L12.9155 10.6358L12.9155 10.6358L11.7612 9.67792ZM12.1927 7.83276L10.7332 8.17934L10.7332 8.17934L12.1927 7.83276ZM16.5 8.53538C16.5 4.9616 13.6058 1.99414 10 1.99414V4.99414C11.917 4.99414 13.5 6.58632 13.5 8.53538H16.5ZM15.2061 12.4592C16.0488 11.3253 16.5 9.93965 16.5 8.53538H13.5C13.5 9.30351 13.2514 10.06 12.7983 10.6697L15.2061 12.4592ZM11.2138 17.8311L15.2061 12.4592L12.7983 10.6697L8.80595 16.0417L11.2138 17.8311ZM8.78622 17.8312C9.3909 18.6448 10.6091 18.6448 11.2138 17.8312L8.80597 16.0416C9.40082 15.2413 10.5992 15.2413 11.194 16.0416L8.78622 17.8312ZM4.79385 12.4592L8.7862 17.8311L11.194 16.0417L7.2017 10.6697L4.79385 12.4592ZM3.5 8.53538C3.5 9.93965 3.95117 11.3253 4.79385 12.4592L7.20171 10.6697C6.74857 10.06 6.5 9.30351 6.5 8.53538H3.5ZM10 1.99414C6.39417 1.99414 3.5 4.9616 3.5 8.53538H6.5C6.5 6.58632 8.08298 4.99414 10 4.99414V1.99414ZM10.3238 7.7283L10.3894 7.75869L11.6495 5.03617L11.5839 5.00578L10.3238 7.7283ZM9.67623 7.7283C9.88161 7.63324 10.1184 7.63324 10.3238 7.7283L11.5839 5.00578C10.5792 4.54075 9.42084 4.54075 8.41612 5.00578L9.67623 7.7283ZM9.61057 7.75869L9.67622 7.7283L8.41612 5.00578L8.35047 5.03617L9.61057 7.75869ZM9.26675 8.17934C9.31081 7.99383 9.43754 7.83878 9.61057 7.75869L8.35046 5.03617C7.34264 5.50264 6.60452 6.40569 6.34793 7.48618L9.26675 8.17934ZM9.39321 8.7201C9.26844 8.56972 9.22161 8.36945 9.26675 8.17934L6.34793 7.48618C6.08498 8.59345 6.35776 9.75992 7.08448 10.6358L9.39321 8.7201ZM9.41385 8.74497L9.3932 8.72009L7.08448 10.6358L7.10513 10.6606L9.41385 8.74497ZM9.94229 8.99317C9.738 8.99317 9.54431 8.9022 9.41386 8.74498L7.10513 10.6606C7.80553 11.5048 8.84543 11.9932 9.94229 11.9932L9.94229 8.99317ZM10.0577 8.99317H9.94229L9.94229 11.9932H10.0577L10.0577 8.99317ZM10.5861 8.74498C10.4557 8.9022 10.262 8.99317 10.0577 8.99317L10.0577 11.9932C11.1546 11.9932 12.1945 11.5048 12.8949 10.6606L10.5861 8.74498ZM10.6068 8.72009L10.5861 8.74498L12.8949 10.6606L12.9155 10.6358L10.6068 8.72009ZM10.7332 8.17934C10.7784 8.36945 10.7316 8.56972 10.6068 8.7201L12.9155 10.6358C13.6422 9.75992 13.915 8.59345 13.6521 7.48618L10.7332 8.17934ZM10.3894 7.75869C10.5625 7.83878 10.6892 7.99383 10.7332 8.17934L13.6521 7.48618C13.3955 6.40569 12.6574 5.50264 11.6495 5.03617L10.3894 7.75869Z" fill="#F44336"/>
</svg>
