<svg width="35" height="35" viewBox="0 0 35 35" fill="none" xmlns="http://www.w3.org/2000/svg">
<path d="M22.3696 8H12.7898C10.1458 8 7.99994 10.1363 7.99994 12.7707V18.4994V19.4574C7.99994 22.0919 10.1458 24.2282 12.7898 24.2282H14.2268C14.4855 24.2282 14.8303 24.4006 14.9932 24.6114L16.4302 26.5177C17.0624 27.3608 18.097 27.3608 18.7293 26.5177L20.1663 24.6114C20.3483 24.3719 20.6357 24.2282 20.9327 24.2282H22.3696C25.0136 24.2282 27.1595 22.0919 27.1595 19.4574V12.7707C27.1595 10.1363 25.0136 8 22.3696 8ZM13.7478 17.5798C13.2113 17.5798 12.7898 17.1487 12.7898 16.6218C12.7898 16.0949 13.2209 15.6638 13.7478 15.6638C14.2747 15.6638 14.7058 16.0949 14.7058 16.6218C14.7058 17.1487 14.2843 17.5798 13.7478 17.5798ZM17.5797 17.5798C17.0433 17.5798 16.6218 17.1487 16.6218 16.6218C16.6218 16.0949 17.0528 15.6638 17.5797 15.6638C18.1066 15.6638 18.5377 16.0949 18.5377 16.6218C18.5377 17.1487 18.1162 17.5798 17.5797 17.5798ZM21.4116 17.5798C20.8752 17.5798 20.4537 17.1487 20.4537 16.6218C20.4537 16.0949 20.8848 15.6638 21.4116 15.6638C21.9385 15.6638 22.3696 16.0949 22.3696 16.6218C22.3696 17.1487 21.9481 17.5798 21.4116 17.5798Z" fill="#9C54D5"/>
</svg>
