<svg width="24" height="24" viewBox="0 0 24 24" fill="none" xmlns="http://www.w3.org/2000/svg">
<path d="M10.1265 17.1001C9.99377 17.3764 9.92159 17.6831 9.92159 18.0001C9.92159 18.7427 10.3177 19.4288 10.9608 19.8001C11.6039 20.1714 12.3962 20.1714 13.0393 19.8001C13.6824 19.4288 14.0785 18.7427 14.0785 18.0001C14.0785 17.6831 14.0063 17.3764 13.8736 17.1001H10.1265Z" fill="#C2CCDE" fill-opacity="0.25"/>
<path d="M11.8883 5.1001C10.6152 5.1001 9.39434 5.60581 8.49416 6.50598L8.30594 6.69421C7.40576 7.59438 6.90005 8.81529 6.90005 10.0883V10.9698C6.90005 12.59 6.25639 14.1439 5.11069 15.2896C4.91179 15.4885 4.80005 15.7583 4.80005 16.0396C4.80005 16.6253 5.27488 17.1001 5.86061 17.1001H18.1395C18.7252 17.1001 19.2 16.6253 19.2 16.0396C19.2 15.7583 19.0883 15.4885 18.8894 15.2896C17.7437 14.1439 17.1 12.59 17.1 10.9698V10.0883C17.1 8.81528 16.5943 7.59439 15.6942 6.69421L15.5059 6.50599C14.6058 5.60581 13.3849 5.1001 12.1118 5.1001H11.8883Z" fill="#C2CCDE" fill-opacity="0.25"/>
<path d="M12.6 5.12498V4.2001C12.6 3.86873 12.3314 3.6001 12 3.6001C11.6687 3.6001 11.4 3.86873 11.4 4.2001V5.12498C11.5615 5.10847 11.7245 5.1001 11.8883 5.1001H12.1118C12.2756 5.1001 12.4386 5.10847 12.6 5.12498Z" fill="#C2CCDE" fill-opacity="0.25"/>
<path d="M11.8883 5.1001C10.6152 5.1001 9.39434 5.60581 8.49416 6.50598L8.30594 6.69421C7.40576 7.59438 6.90005 8.81529 6.90005 10.0883V10.9698C6.90005 12.59 6.2564 14.1439 5.11069 15.2896C4.91179 15.4885 4.80005 15.7583 4.80005 16.0396C4.80005 16.6253 5.27488 17.1001 5.86061 17.1001H18.1395C18.7252 17.1001 19.2 16.6253 19.2 16.0396C19.2 15.7583 19.0883 15.4885 18.8894 15.2896C17.7437 14.1439 17.1 12.59 17.1 10.9698V10.0883C17.1 8.81528 16.5943 7.59439 15.6942 6.69421L15.5059 6.50598C14.6058 5.60581 13.3849 5.1001 12.1118 5.1001M11.8883 5.1001H12.1118M11.8883 5.1001C11.7245 5.1001 11.5615 5.10847 11.4 5.12498V4.2001C11.4 3.86873 11.6687 3.6001 12 3.6001C12.3314 3.6001 12.6 3.86873 12.6 4.2001V5.12498C12.4386 5.10847 12.2756 5.1001 12.1118 5.1001M9.92159 18.0001C9.92159 17.6831 9.99377 17.3764 10.1265 17.1001H13.8736C14.0063 17.3764 14.0785 17.6831 14.0785 18.0001C14.0785 18.7427 13.6824 19.4288 13.0393 19.8001C12.3962 20.1714 11.6039 20.1714 10.9608 19.8001C10.3177 19.4288 9.92159 18.7427 9.92159 18.0001Z" stroke="#414141" stroke-linecap="round" stroke-linejoin="round"/>
</svg>
