<svg width="50" height="50" viewBox="0 0 50 50" fill="none" xmlns="http://www.w3.org/2000/svg">
<circle opacity="0.74" cx="25" cy="25" r="24.5" fill="white" stroke="#CFADEB"/>
<g clip-path="url(#clip0_807_4056)">
<path d="M34.1633 17.1078C34.1573 16.8313 33.9315 16.6104 33.655 16.6104H16.345C16.0685 16.6104 15.8426 16.8314 15.8366 17.1078L15.3503 39.4806C15.344 39.7657 15.5734 40.0002 15.8586 40.0002H34.1414C34.4265 40.0002 34.6559 39.7657 34.6497 39.4806L34.1633 17.1078Z" fill="#E53935"/>
<path d="M24.0948 37.9663C20.9582 37.9663 18.4347 35.3874 18.5029 32.2515L18.8429 16.6104H16.345C16.0684 16.6104 15.8426 16.8314 15.8366 17.1078L15.3503 39.4806C15.3441 39.7657 15.5735 40.0002 15.8587 40.0002H34.1414C34.4265 40.0002 34.656 39.7657 34.6498 39.4807L34.6168 37.9663H24.0948Z" fill="#B71B1C"/>
<path d="M21.4407 20.9325C22.1427 20.9325 22.7119 20.3634 22.7119 19.6613C22.7119 18.9593 22.1427 18.3901 21.4407 18.3901C20.7386 18.3901 20.1695 18.9593 20.1695 19.6613C20.1695 20.3634 20.7386 20.9325 21.4407 20.9325Z" fill="#B71B1C"/>
<path d="M28.5593 20.9325C29.2614 20.9325 29.8305 20.3634 29.8305 19.6613C29.8305 18.9593 29.2614 18.3901 28.5593 18.3901C27.8573 18.3901 27.2881 18.9593 27.2881 19.6613C27.2881 20.3634 27.8573 20.9325 28.5593 20.9325Z" fill="#B71B1C"/>
<path d="M20.4237 34.534C20.2608 34.534 20.0984 34.4719 19.9743 34.3478C19.7261 34.0996 19.7261 33.6974 19.9743 33.4491L29.1269 24.2965C29.3751 24.0483 29.7773 24.0483 30.0256 24.2965C30.274 24.5448 30.2739 24.947 30.0256 25.1953L20.8732 34.3478C20.749 34.4719 20.5865 34.534 20.4237 34.534Z" fill="white"/>
<path d="M21.9491 28.9405C20.4774 28.9405 19.2797 27.7428 19.2797 26.271C19.2797 24.7993 20.4774 23.6016 21.9491 23.6016C23.4209 23.6016 24.6186 24.7993 24.6186 26.271C24.6186 27.7428 23.421 28.9405 21.9491 28.9405ZM21.9491 24.8728C21.178 24.8728 20.5509 25.4999 20.5509 26.271C20.5509 27.0422 21.178 27.6693 21.9491 27.6693C22.7203 27.6693 23.3474 27.0422 23.3474 26.271C23.3474 25.4999 22.7203 24.8728 21.9491 24.8728Z" fill="white"/>
<path d="M28.0509 35.0426C26.5791 35.0426 25.3814 33.8448 25.3814 32.3731C25.3814 30.9013 26.5791 29.7036 28.0509 29.7036C29.5226 29.7036 30.7204 30.9013 30.7204 32.3731C30.7204 33.8448 29.5226 35.0426 28.0509 35.0426ZM28.0509 30.9747C27.2797 30.9747 26.6526 31.6019 26.6526 32.373C26.6526 33.1442 27.2797 33.7713 28.0509 33.7713C28.822 33.7713 29.4492 33.1442 29.4492 32.373C29.4492 31.6019 28.822 30.9747 28.0509 30.9747Z" fill="white"/>
<path d="M28.5593 20.1695C28.2783 20.1695 28.0509 19.9421 28.0509 19.661V14.0678C28.0509 12.3855 26.6823 11.017 25 11.017C23.3177 11.017 21.9491 12.3855 21.9491 14.0678V19.6611C21.9491 19.9421 21.7217 20.1695 21.4407 20.1695C21.1596 20.1695 20.9322 19.9421 20.9322 19.6611V14.0678C20.9322 11.8248 22.757 10 25 10C27.243 10 29.0678 11.8248 29.0678 14.0678V19.6611C29.0678 19.9421 28.8404 20.1695 28.5593 20.1695Z" fill="#2A2A2A"/>
<path d="M21.4407 20.1696C21.1599 20.1696 20.9322 19.942 20.9322 19.6612V18.6442C20.9322 18.3634 21.1599 18.1357 21.4407 18.1357C21.7214 18.1357 21.9491 18.3634 21.9491 18.6442V19.6612C21.9491 19.942 21.7215 20.1696 21.4407 20.1696Z" fill="#FCE2E7"/>
<path d="M28.5593 20.1696C28.2785 20.1696 28.0508 19.942 28.0508 19.6612V18.6442C28.0508 18.3634 28.2785 18.1357 28.5593 18.1357C28.8401 18.1357 29.0678 18.3634 29.0678 18.6442V19.6612C29.0678 19.942 28.8401 20.1696 28.5593 20.1696Z" fill="#FCE2E7"/>
</g>
<defs>
<clipPath id="clip0_807_4056">
<rect width="30" height="30" fill="white" transform="translate(10 10)"/>
</clipPath>
</defs>
</svg>
