<svg width="24" height="24" viewBox="0 0 24 24" fill="none" xmlns="http://www.w3.org/2000/svg">
<g id="search">
<g id="Vector">
<path d="M19.036 20.3249L15.2175 16.5053C14.8663 16.154 14.8663 15.5846 15.2176 15.2333C15.5689 14.882 16.1385 14.882 16.4898 15.2334L20.3083 19.053C20.6595 19.4043 20.6595 19.9737 20.3082 20.325C19.9569 20.6763 19.3873 20.6763 19.036 20.3249Z" fill="#C2CCDE" fill-opacity="0.25"/>
<path d="M4.67902 8.72092C5.20754 6.74846 6.74821 5.20779 8.72068 4.67927C10.6931 4.15074 12.7977 4.71467 14.2417 6.15861C15.6856 7.60256 16.2496 9.70716 15.721 11.6796C15.1925 13.6521 13.6518 15.1928 11.6794 15.7213C9.70691 16.2498 7.60232 15.6859 6.15837 14.2419C4.71443 12.798 4.1505 10.6934 4.67902 8.72092Z" fill="#C2CCDE" fill-opacity="0.25"/>
<path d="M14.2335 14.2498L15.2173 15.2336M15.2175 16.5053L19.036 20.3249C19.3873 20.6763 19.9569 20.6763 20.3082 20.325C20.6595 19.9737 20.6595 19.4043 20.3083 19.053L16.4898 15.2334C16.1385 14.882 15.5689 14.882 15.2176 15.2333C14.8663 15.5846 14.8663 16.154 15.2175 16.5053ZM6.15837 14.2419C4.71443 12.798 4.1505 10.6934 4.67902 8.72092C5.20754 6.74846 6.74821 5.20779 8.72068 4.67927C10.6931 4.15074 12.7977 4.71467 14.2417 6.15861C15.6856 7.60256 16.2496 9.70716 15.721 11.6796C15.1925 13.6521 13.6518 15.1928 11.6794 15.7213C9.70691 16.2498 7.60232 15.6859 6.15837 14.2419Z" stroke="#D0D0D0" stroke-linecap="round" stroke-linejoin="round"/>
</g>
</g>
</svg>
