<svg width="18" height="18" viewBox="0 0 18 18" fill="none" xmlns="http://www.w3.org/2000/svg">
<path d="M5.71631 2.18112C7.79139 1.18181 10.2086 1.18181 12.2837 2.18112C14.3588 3.18043 15.8659 5.07028 16.3784 7.31571C16.8909 9.56114 16.353 11.9177 14.917 13.7184C13.481 15.5191 11.3032 16.5679 9 16.5679C6.69683 16.5679 4.51899 15.5191 3.08299 13.7184C1.64699 11.9177 1.10911 9.56114 1.62161 7.31571C2.13411 5.07028 3.64122 3.18043 5.71631 2.18112Z" fill="#C2CCDE" fill-opacity="0.25"/>
<path d="M6.9 7.19978C6.9 7.53115 6.63137 7.79978 6.3 7.79978C5.96863 7.79978 5.7 7.53115 5.7 7.19978C5.7 6.86841 5.96863 6.59978 6.3 6.59978C6.63137 6.59978 6.9 6.86841 6.9 7.19978Z" fill="#C2CCDE" fill-opacity="0.25"/>
<path d="M12.3 7.19978C12.3 7.53115 12.0314 7.79978 11.7 7.79978C11.3686 7.79978 11.1 7.53115 11.1 7.19978C11.1 6.86841 11.3686 6.59978 11.7 6.59978C12.0314 6.59978 12.3 6.86841 12.3 7.19978Z" fill="#C2CCDE" fill-opacity="0.25"/>
<path d="M12.182 12.1818C11.3381 13.0257 10.1935 13.4998 9 13.4998C7.80653 13.4998 6.66193 13.0257 5.81802 12.1818M1.62161 7.31571C2.13411 5.07028 3.64122 3.18043 5.71631 2.18112C7.79139 1.18181 10.2086 1.18181 12.2837 2.18112C14.3588 3.18043 15.8659 5.07028 16.3784 7.31571C16.8909 9.56114 16.353 11.9177 14.917 13.7184C13.481 15.5191 11.3032 16.5679 9 16.5679C6.69683 16.5679 4.51899 15.5191 3.08299 13.7184C1.64699 11.9177 1.10911 9.56114 1.62161 7.31571ZM6.9 7.19978C6.9 7.53115 6.63137 7.79978 6.3 7.79978C5.96863 7.79978 5.7 7.53115 5.7 7.19978C5.7 6.86841 5.96863 6.59978 6.3 6.59978C6.63137 6.59978 6.9 6.86841 6.9 7.19978ZM12.3 7.19978C12.3 7.53115 12.0314 7.79978 11.7 7.79978C11.3686 7.79978 11.1 7.53115 11.1 7.19978C11.1 6.86841 11.3686 6.59978 11.7 6.59978C12.0314 6.59978 12.3 6.86841 12.3 7.19978Z" stroke="#414141" stroke-linecap="round" stroke-linejoin="round"/>
</svg>
