<svg width="40" height="40" viewBox="0 0 40 40" fill="none" xmlns="http://www.w3.org/2000/svg">
<circle cx="20" cy="20" r="20" fill="#FFCDD2"/>
<path d="M23.5457 17.8399L21.0773 15.3715C20.8283 15.1224 21.0047 14.6965 21.3569 14.6965L23.6207 14.6965C23.9521 14.6965 24.2207 14.9651 24.2207 15.2965L24.2207 17.5603C24.2207 17.9126 23.7948 18.089 23.5457 17.8399Z" fill="#C2CCDE" fill-opacity="0.25"/>
<path d="M22.3115 16.6057L14.0384 24.8789M21.0773 15.3715L23.5457 17.8399C23.7948 18.089 24.2207 17.9126 24.2207 17.5603L24.2207 15.2965C24.2207 14.9651 23.9521 14.6965 23.6207 14.6965L21.3569 14.6965C21.0047 14.6965 20.8283 15.1224 21.0773 15.3715Z" stroke="#D32F2F" stroke-linecap="round" stroke-linejoin="round"/>
</svg>
