<svg width="16" height="16" viewBox="0 0 16 16" fill="none" xmlns="http://www.w3.org/2000/svg">
<path d="M4.00005 14.0005H12C12.4419 14.0005 12.8 13.6423 12.8 13.2005C12.8 11.8772 11.9791 10.6928 10.74 10.2284L10.494 10.1362C8.88597 9.5335 7.11413 9.5335 5.50613 10.1362L5.26011 10.2284C4.02101 10.6928 3.20005 11.8772 3.20005 13.2005C3.20005 13.6423 3.55822 14.0005 4.00005 14.0005Z" fill="#C2CCDE" fill-opacity="0.25"/>
<path d="M9.21976 7.77394C8.45417 8.16721 7.54593 8.16721 6.78034 7.77394C6.06783 7.40794 5.55734 6.74132 5.38973 5.95804L5.345 5.74899C5.1736 4.94799 5.35668 4.112 5.84716 3.45596L5.91899 3.35989C6.40954 2.70375 7.1808 2.31738 8.00005 2.31738C8.81929 2.31738 9.59056 2.70375 10.0811 3.35989L10.1529 3.45596C10.6434 4.11201 10.8265 4.94799 10.6551 5.74899L10.6104 5.95804C10.4428 6.74132 9.93227 7.40794 9.21976 7.77394Z" fill="#C2CCDE" fill-opacity="0.25"/>
<path d="M4.00005 14.0005H12C12.4419 14.0005 12.8 13.6423 12.8 13.2005C12.8 11.8772 11.9791 10.6928 10.74 10.2284L10.494 10.1362C8.88597 9.5335 7.11413 9.5335 5.50613 10.1362L5.26011 10.2284C4.02101 10.6928 3.20005 11.8772 3.20005 13.2005C3.20005 13.6423 3.55822 14.0005 4.00005 14.0005Z" stroke="#414141" stroke-opacity="0.8" stroke-linecap="round" stroke-linejoin="round"/>
<path d="M9.21976 7.77394C8.45417 8.16721 7.54593 8.16721 6.78034 7.77394C6.06783 7.40794 5.55734 6.74132 5.38973 5.95804L5.345 5.74899C5.1736 4.94799 5.35668 4.112 5.84716 3.45596L5.91899 3.35989C6.40954 2.70375 7.1808 2.31738 8.00005 2.31738C8.81929 2.31738 9.59056 2.70375 10.0811 3.35989L10.1529 3.45596C10.6434 4.11201 10.8265 4.94799 10.6551 5.74899L10.6104 5.95804C10.4428 6.74132 9.93227 7.40794 9.21976 7.77394Z" stroke="#414141" stroke-opacity="0.8" stroke-linecap="round" stroke-linejoin="round"/>
</svg>
