<svg width="24" height="24" viewBox="0 0 24 24" fill="none" xmlns="http://www.w3.org/2000/svg">
<path d="M3.59998 6.5998V17.3998C3.59998 18.3939 4.40586 19.1998 5.39998 19.1998H18.6C19.5941 19.1998 20.4 18.3939 20.4 17.3998V8.9998C20.4 8.00569 19.5941 7.1998 18.6 7.1998H18V6.5998C18 5.60569 17.1941 4.7998 16.2 4.7998H5.39998C4.40586 4.7998 3.59998 5.60569 3.59998 6.5998Z" fill="#C2CCDE" fill-opacity="0.25"/>
<path d="M15.6 12.8998C15.6 12.2371 16.1372 11.6998 16.8 11.6998C17.4627 11.6998 18 12.2371 18 12.8998C18 13.5625 17.4627 14.0998 16.8 14.0998C16.1372 14.0998 15.6 13.5625 15.6 12.8998Z" fill="#C2CCDE" fill-opacity="0.25"/>
<path d="M18 7.1998V6.5998C18 5.60569 17.1941 4.7998 16.2 4.7998H5.39998C4.40586 4.7998 3.59998 5.60569 3.59998 6.5998V17.3998C3.59998 18.3939 4.40586 19.1998 5.39998 19.1998H18.6C19.5941 19.1998 20.4 18.3939 20.4 17.3998V8.9998C20.4 8.00569 19.5941 7.1998 18.6 7.1998H18ZM18 7.1998H6.74998M16.8 14.0998C16.1372 14.0998 15.6 13.5625 15.6 12.8998C15.6 12.2371 16.1372 11.6998 16.8 11.6998C17.4627 11.6998 18 12.2371 18 12.8998C18 13.5625 17.4627 14.0998 16.8 14.0998Z" stroke="#414141" stroke-opacity="0.8" stroke-linecap="round" stroke-linejoin="round"/>
</svg>
