<svg width="35" height="35" viewBox="0 0 35 35" fill="none" xmlns="http://www.w3.org/2000/svg">
<path d="M9.4143 23.235C9.44963 23.1499 9.50141 23.0726 9.56667 23.0075L11.025 21.5923C11.1574 21.4682 11.3321 21.3992 11.5135 21.3992C11.695 21.3992 11.8697 21.4682 12.0021 21.5923C13.3292 22.847 15.1083 23.5473 16.9458 23.5181C18.8417 23.5181 20.1104 22.7157 20.1104 21.4464C20.1104 20.3002 19.0638 19.9154 17.0779 19.1854C16.8648 19.107 16.6409 19.0247 16.4062 18.9371M9.4143 23.235L8.9525 23.0433C9.01305 22.8974 9.10179 22.7649 9.21365 22.6534L9.21843 22.6486L9.21846 22.6487L10.6768 21.2335L10.683 21.2275L10.6831 21.2275C10.9082 21.0166 11.2051 20.8992 11.5135 20.8992C11.822 20.8992 12.1189 21.0166 12.344 21.2275L12.3456 21.229C13.5787 22.3949 15.2321 23.0453 16.9379 23.0182L16.9458 23.0181V23.0181C17.8316 23.0181 18.5186 22.8295 18.9671 22.5387C19.4 22.2581 19.6104 21.8881 19.6104 21.4464C19.6104 21.2215 19.5562 21.0656 19.4636 20.9344C19.3637 20.7929 19.1962 20.6478 18.9184 20.4893C18.4554 20.2252 17.8083 19.9871 16.9273 19.6629C16.7107 19.5833 16.48 19.4984 16.2345 19.4066M9.4143 23.235C9.37897 23.3201 9.36078 23.4114 9.36078 23.5035C9.36078 23.5957 9.37897 23.687 9.4143 23.7721M9.4143 23.235L8.95249 23.0433C8.89195 23.1892 8.86078 23.3456 8.86078 23.5035C8.86078 23.6615 8.89195 23.8179 8.9525 23.9638L9.4143 23.7721M16.2345 19.4066C16.2355 19.407 16.2366 19.4074 16.2377 19.4078L16.4062 18.9371M16.2345 19.4066C16.2334 19.4062 16.2323 19.4058 16.2312 19.4054L16.4062 18.9371M16.2345 19.4066C14.9405 18.9431 13.6157 18.3633 12.6122 17.4795C11.5864 16.5759 10.9042 15.3605 10.9042 13.6849C10.9042 11.7614 11.7115 10.3024 13 9.31748C14.1789 8.41636 15.7346 7.92967 17.3925 7.79731L17.6808 6.37815L17.6817 6.37369C17.7399 6.10039 17.8915 5.8559 18.1106 5.6824L18.421 6.07436L18.1106 5.6824C18.328 5.51019 18.5984 5.41866 18.8756 5.4233H21.4667H21.4916L21.5164 5.42578L21.6623 5.44037L21.694 5.44354L21.725 5.4507C22.3485 5.59466 22.7899 6.20668 22.6413 6.873L22.3323 8.44141C23.5492 8.8992 24.697 9.56402 25.6988 10.4151L25.7142 10.4283L25.7286 10.4427L25.7578 10.4719L25.7669 10.4809L25.7667 10.481C26.2151 10.9532 26.2433 11.7052 25.7536 12.1751L24.4015 13.5277L24.3952 13.5341L24.3885 13.5403C24.1657 13.7476 23.874 13.8649 23.5696 13.8694C23.2671 13.874 22.9735 13.7667 22.7452 13.5683C21.5223 12.5362 19.9744 11.9692 18.3744 11.9673C17.7096 11.9673 17.0934 12.079 16.6627 12.3055C16.256 12.5195 16.0458 12.8108 16.0458 13.2326C16.0458 13.6393 16.2559 13.9419 16.7785 14.2527C17.2318 14.5223 17.8254 14.7415 18.5314 15.0022C18.6761 15.0556 18.8255 15.1107 18.9794 15.1685C20.5143 15.6807 21.9855 16.2791 23.0757 17.1626C24.1937 18.0686 24.9125 19.277 24.9125 20.9504C24.9125 22.725 24.2185 24.2428 22.954 25.3417C21.773 26.368 20.1242 27.0046 18.143 27.1838L17.8437 28.5659C17.8435 28.5667 17.8433 28.5674 17.8432 28.5682C17.7859 28.8407 17.6367 29.0852 17.4206 29.2609C17.2039 29.437 16.9331 29.5331 16.6538 29.5329M16.4062 18.9371L16.6542 29.0329M16.6538 29.5329L16.6542 29.0329M16.6538 29.5329H16.6542V29.0329M16.6538 29.5329H14.0438H14.016L13.9885 29.5299L13.8573 29.5153L13.8299 29.5122L13.803 29.5062C13.488 29.4355 13.2135 29.2437 13.0387 28.9722C12.8639 28.7008 12.803 28.3715 12.8689 28.0555L12.87 28.0499L12.8701 28.05L13.1764 26.66M16.6542 29.0329H14.0438L13.9125 29.0183C13.7257 28.9764 13.5628 28.8626 13.4591 28.7016C13.3554 28.5405 13.3192 28.3451 13.3583 28.1576L13.7667 26.3047M13.1764 26.66C13.3313 26.7069 13.4876 26.7502 13.645 26.7897L13.7667 26.3047M13.1764 26.66L13.2784 26.1971L13.7667 26.3047M13.1764 26.66C11.7037 26.2138 10.3511 25.4342 9.22483 24.3791L9.06667 24.2309V24.1758M13.7667 26.3047C12.1949 25.9105 10.7494 25.1222 9.56667 24.0142V23.9996M9.06667 24.1758C9.10973 24.2395 9.15893 24.2991 9.21365 24.3537L9.55212 24.0142L9.56667 23.9996M9.06667 24.1758V24.0142V23.9996H9.56667M9.06667 24.1758C9.02171 24.1093 8.98342 24.0383 8.9525 23.9638L9.4143 23.7721M9.56667 23.9996C9.50141 23.9345 9.44963 23.8572 9.4143 23.7721M32.3179 2.69754C33.0322 3.41212 33.5818 4.27411 33.9285 5.22324C34.4953 7.02749 34.5 8.69382 34.5 12.2259V22.8032C34.5 26.3209 34.4953 27.9873 33.9284 29.7917C33.582 30.7449 33.0309 31.6105 32.314 32.3278C31.5974 33.0447 30.7325 33.5958 29.7802 33.9423C27.9905 34.4954 26.3239 34.5 22.7938 34.5H12.1771C8.66109 34.5 6.9955 34.4953 5.19206 33.9283C4.2434 33.5815 3.38182 33.0316 2.66755 32.317C1.95368 31.6029 1.40423 30.7415 1.05753 29.793C0.50448 27.9875 0.5 26.3336 0.5 22.8032V12.1967C0.5 8.67893 0.504696 7.01258 1.0717 5.20807C1.41668 4.2562 1.96568 3.39134 2.68019 2.67418C3.39423 1.95751 4.25622 1.40574 5.20574 1.05748C6.99528 0.504612 8.6763 0.5 12.1917 0.5H22.7792C26.3249 0.5 27.975 0.504806 29.7922 1.08591C30.7413 1.43268 31.6033 1.98269 32.3179 2.69754Z" fill="black" stroke="#E8E8E8"/>
</svg>
