<svg width="30" height="35" viewBox="0 0 30 35" fill="none" xmlns="http://www.w3.org/2000/svg">
<mask id="path-1-inside-1_63_7189" fill="white">
<path d="M25.254 2.63911C23.6334 0.791931 20.7038 0 16.9561 0H6.07911C5.70831 1.37299e-05 5.34967 0.132303 5.06768 0.373085C4.78569 0.613866 4.59884 0.947345 4.54073 1.31357L0.0117528 30.0374C-0.0782685 30.6038 0.360323 31.1168 0.934412 31.1168H7.64948L9.33593 20.4199L9.28359 20.7549C9.40374 19.9988 10.0504 19.4411 10.8162 19.4411H14.0071C20.2758 19.4411 25.1843 16.8949 26.6181 9.52934C26.6607 9.3115 26.6976 9.09947 26.7295 8.89233C26.5485 8.79649 26.5485 8.79649 26.7295 8.89233C27.1564 6.16994 26.7265 4.31683 25.254 2.63911Z"/>
</mask>
<path d="M25.254 2.63911C23.6334 0.791931 20.7038 0 16.9561 0H6.07911C5.70831 1.37299e-05 5.34967 0.132303 5.06768 0.373085C4.78569 0.613866 4.59884 0.947345 4.54073 1.31357L0.0117528 30.0374C-0.0782685 30.6038 0.360323 31.1168 0.934412 31.1168H7.64948L9.33593 20.4199L9.28359 20.7549C9.40374 19.9988 10.0504 19.4411 10.8162 19.4411H14.0071C20.2758 19.4411 25.1843 16.8949 26.6181 9.52934C26.6607 9.3115 26.6976 9.09947 26.7295 8.89233C26.5485 8.79649 26.5485 8.79649 26.7295 8.89233C27.1564 6.16994 26.7265 4.31683 25.254 2.63911Z" fill="#27346A"/>
<path d="M6.07911 0V-1H6.07908L6.07911 0ZM4.54073 1.31357L3.55308 1.15684L3.55293 1.15782L4.54073 1.31357ZM0.0117528 30.0374L0.999358 30.1944L0.999549 30.1932L0.0117528 30.0374ZM7.64948 31.1168V32.1168H8.50418L8.63728 31.2725L7.64948 31.1168ZM9.33593 20.4199L10.3239 20.5743L8.34813 20.2642L9.33593 20.4199ZM9.28359 20.7549L8.29558 20.6005L10.2712 20.9118L9.28359 20.7549ZM26.6181 9.52934L25.6367 9.33756L25.6366 9.33826L26.6181 9.52934ZM26.0057 1.97961C24.0889 -0.205144 20.7771 -1 16.9561 -1V1C20.6306 1 23.1778 1.78901 24.5023 3.29861L26.0057 1.97961ZM16.9561 -1H6.07911V1H16.9561V-1ZM6.07908 -1C5.47023 -0.999977 4.88135 -0.782761 4.41833 -0.387404L5.71703 1.13357C5.81799 1.04737 5.94639 1 6.07915 1L6.07908 -1ZM4.41833 -0.387404C3.95531 0.00795281 3.64851 0.555517 3.55309 1.15684L5.52837 1.47029C5.54918 1.33917 5.61607 1.21978 5.71703 1.13357L4.41833 -0.387404ZM3.55293 1.15782L-0.976044 29.8817L0.999549 30.1932L5.52852 1.46931L3.55293 1.15782ZM-0.975852 29.8805C-1.16263 31.0557 -0.25301 32.1168 0.934412 32.1168V30.1168C0.973656 30.1168 1.0061 30.152 0.999357 30.1944L-0.975852 29.8805ZM0.934412 32.1168H7.64948V30.1168H0.934412V32.1168ZM8.63728 31.2725L10.3237 20.5757L8.34813 20.2642L6.66169 30.961L8.63728 31.2725ZM8.34792 20.2656L8.29558 20.6005L10.2716 20.9093L10.3239 20.5743L8.34792 20.2656ZM10.2712 20.9118C10.315 20.6362 10.5473 20.4411 10.8162 20.4411V18.4411C9.55351 18.4411 8.49247 19.3614 8.29598 20.598L10.2712 20.9118ZM10.8162 20.4411H14.0071V18.4411H10.8162V20.4411ZM14.0071 20.4411C17.2651 20.4411 20.2884 19.7808 22.7052 18.0623C25.1433 16.3286 26.8438 13.6037 27.5997 9.72042L25.6366 9.33826C24.9587 12.8205 23.488 15.0516 21.5462 16.4323C19.5831 17.8283 17.0179 18.4411 14.0071 18.4411V20.4411ZM27.5996 9.72112C27.6447 9.49004 27.6839 9.26477 27.7178 9.04439L25.7411 8.74027C25.7112 8.93417 25.6767 9.13295 25.6367 9.33756L27.5996 9.72112ZM27.1974 8.0086C27.1748 7.9966 27.1869 8.00301 27.1656 7.99175C27.088 7.95066 27.2142 8.0175 27.1381 7.97715C27.1347 7.97538 27.1167 7.96582 27.1147 7.9648C27.0753 7.94393 27.1336 7.97481 27.0956 7.95469C27.075 7.94374 27.0852 7.94917 27.0702 7.94121C27.0617 7.93672 27.0746 7.94355 27.0665 7.93925C27.0654 7.93869 27.0645 7.93821 27.0638 7.93784C27.063 7.93741 27.0627 7.93724 27.0622 7.937C27.0618 7.93679 27.0622 7.93695 27.0618 7.93679C27.0618 7.93676 27.0618 7.93675 27.0617 7.93674C27.0617 7.93674 27.0617 7.93673 27.0617 7.93673C27.0617 7.93673 27.0617 7.93673 27.0617 7.93672C27.0617 7.93672 27.0617 7.93672 27.0617 7.93672C27.0617 7.93672 27.0617 7.93672 26.5937 8.82045C26.1257 9.70419 26.1257 9.70419 26.1257 9.70419C26.1257 9.70419 26.1257 9.70419 26.1257 9.70419C26.1258 9.70422 26.1257 9.70417 26.1258 9.7042C26.1258 9.70421 26.1258 9.70421 26.1258 9.70421C26.1258 9.70422 26.1258 9.70422 26.1258 9.70423C26.1259 9.70425 26.1258 9.70422 26.1259 9.70426C26.1308 9.70686 26.1211 9.70173 26.126 9.70434C26.126 9.70435 26.1261 9.70436 26.1261 9.70437C26.1261 9.70438 26.1261 9.70439 26.1261 9.7044C26.1262 9.70441 26.1262 9.70442 26.1262 9.70443C26.1262 9.70444 26.1262 9.70445 26.1263 9.70447C26.1267 9.70472 26.1264 9.70452 26.1269 9.70482C26.1273 9.70502 26.127 9.70483 26.1274 9.70505C26.1274 9.70507 26.1274 9.70509 26.1275 9.70511C26.1275 9.70513 26.1276 9.70515 26.1276 9.70517C26.1276 9.70519 26.1277 9.70522 26.1277 9.70524C26.1278 9.70526 26.1278 9.70529 26.1278 9.70531C26.1367 9.71 26.1239 9.70324 26.1342 9.70868C26.1384 9.71088 26.1498 9.71696 26.1597 9.72215C26.1615 9.72311 26.16 9.72233 26.1618 9.7233C26.1624 9.72363 26.1634 9.72413 26.164 9.72447C26.1776 9.73167 26.155 9.71968 26.1687 9.72693C26.1779 9.7318 26.1692 9.7272 26.1787 9.73226C26.2034 9.74533 26.176 9.7308 26.2021 9.74462C26.2127 9.75026 26.2176 9.75283 26.2296 9.75922C26.238 9.76364 26.2517 9.77089 26.2615 9.77606L27.1974 8.0086C27.1748 7.9966 27.1869 8.00301 27.1656 7.99175C27.088 7.95066 27.2142 8.0175 27.1381 7.97715C27.1347 7.97538 27.1167 7.96582 27.1147 7.9648C27.0753 7.94393 27.1336 7.97481 27.0956 7.95469C27.075 7.94374 27.0852 7.94917 27.0702 7.94121C27.0617 7.93672 27.0746 7.94355 27.0665 7.93925C27.0654 7.93869 27.0645 7.93821 27.0638 7.93784C27.063 7.93741 27.0627 7.93724 27.0622 7.937C27.0618 7.93679 27.0622 7.93695 27.0618 7.93679C27.0618 7.93676 27.0618 7.93675 27.0617 7.93674C27.0617 7.93674 27.0617 7.93673 27.0617 7.93673C27.0617 7.93673 27.0617 7.93673 27.0617 7.93672C27.0617 7.93672 27.0617 7.93672 27.0617 7.93672C27.0617 7.93672 27.0617 7.93672 26.5937 8.82045C26.1257 9.70419 26.1257 9.70419 26.1257 9.70419C26.1257 9.70419 26.1257 9.70419 26.1257 9.70419C26.1258 9.70422 26.1257 9.70417 26.1258 9.7042C26.1258 9.70421 26.1258 9.70421 26.1258 9.70421C26.1258 9.70422 26.1258 9.70422 26.1258 9.70423C26.1259 9.70425 26.1258 9.70422 26.1259 9.70426C26.1308 9.70686 26.1211 9.70173 26.126 9.70434C26.126 9.70435 26.1261 9.70436 26.1261 9.70437C26.1261 9.70438 26.1261 9.70439 26.1261 9.7044C26.1262 9.70441 26.1262 9.70442 26.1262 9.70443C26.1262 9.70444 26.1262 9.70445 26.1263 9.70447C26.1267 9.70472 26.1264 9.70452 26.1269 9.70482C26.1273 9.70502 26.127 9.70483 26.1274 9.70505C26.1274 9.70507 26.1274 9.70509 26.1275 9.70511C26.1275 9.70513 26.1276 9.70515 26.1276 9.70517C26.1276 9.70519 26.1277 9.70522 26.1277 9.70524C26.1278 9.70526 26.1278 9.70529 26.1278 9.70531C26.1367 9.71 26.1239 9.70324 26.1342 9.70868C26.1384 9.71088 26.1498 9.71696 26.1597 9.72215C26.1615 9.72311 26.16 9.72233 26.1618 9.7233C26.1624 9.72363 26.1634 9.72413 26.164 9.72447C26.1776 9.73167 26.155 9.71968 26.1687 9.72693C26.1779 9.7318 26.1692 9.7272 26.1787 9.73226C26.2034 9.74533 26.176 9.7308 26.2021 9.74462C26.2127 9.75026 26.2176 9.75283 26.2296 9.75922C26.238 9.76364 26.2517 9.77089 26.2615 9.77606L27.1974 8.0086ZM27.7174 9.04727C27.9436 7.60494 27.9544 6.32313 27.6775 5.14516C27.3977 3.9546 26.8374 2.92719 26.0056 1.97945L24.5024 3.29877C25.1431 4.02876 25.5341 4.76676 25.7306 5.60278C25.93 6.4514 25.9423 7.45733 25.7415 8.73739L27.7174 9.04727Z" fill="#E8E8E8" mask="url(#path-1-inside-1_63_7189)"/>
<path d="M11.6892 7.46076L11.6904 7.4602C11.9412 7.34077 12.2156 7.27887 12.4934 7.27904M11.6892 7.46076L12.4931 7.77904M11.6892 7.46076C11.4171 7.59121 11.1807 7.78584 11.0005 8.02788C10.8202 8.26992 10.7015 8.55214 10.6544 8.85024L10.6544 8.85027L7.22215 30.6159H0.933482C0.667269 30.6159 0.463797 30.378 0.505576 30.1147L0.505651 30.1143M11.6892 7.46076L0.505651 30.1143M12.4934 7.27904L12.4931 7.77904M12.4934 7.27904H12.4931V7.77904M12.4934 7.27904H21.0204C22.051 7.27904 23.0198 7.34604 23.9116 7.48953M12.4931 7.77904H21.0204C22.0302 7.77904 22.9721 7.84476 23.8327 7.98328M23.9116 7.48953C23.9115 7.48953 23.9115 7.48952 23.9114 7.48951L23.8327 7.98328M23.9116 7.48953C24.1623 7.52952 24.4118 7.57724 24.6596 7.63265L23.8327 7.98328M23.9116 7.48953C23.9118 7.48956 23.912 7.4896 23.9122 7.48963L23.8327 7.98328M0.505651 30.1143L5.03454 1.39197C5.03455 1.39194 5.03455 1.39191 5.03456 1.39188C5.11615 0.878251 5.55873 0.5 6.07818 0.5H16.9561C20.6671 0.5 23.4047 1.29042 24.8782 2.96897L0.505651 30.1143ZM26.2584 8.66482C26.4209 8.73597 26.578 8.81168 26.7296 8.89233C26.7576 8.71368 26.7819 8.53878 26.8025 8.36744C26.6473 8.28999 26.4877 8.21738 26.3241 8.14923C26.3061 8.31682 26.2842 8.48861 26.2584 8.66482Z" fill="#27346A" stroke="#E8E8E8"/>
<path d="M22.4156 17.6544C24.7144 16.0196 26.351 13.4415 27.0944 9.6992C27.4009 9.91393 27.671 10.153 27.9037 10.4177C29.1411 11.828 29.4321 13.8865 28.9215 16.5118C28.3136 19.633 26.984 21.6773 25.1923 22.9514C23.3901 24.233 21.0603 24.7781 18.3804 24.7781H17.5332H17.533C17.0897 24.7782 16.6611 24.9365 16.3241 25.2245C15.9888 25.511 15.7661 25.9071 15.6957 26.3424L15.628 26.7104L15.6278 26.7104L15.6258 26.7229L14.5602 33.4765L14.5066 33.757L14.5051 33.7649L14.5038 33.7728C14.4718 33.9755 14.3684 34.1601 14.2124 34.2934C14.0564 34.4266 13.858 34.4999 13.6528 34.5C13.6528 34.5 13.6528 34.5 13.6527 34.5H7.99221C7.79845 34.5 7.64914 34.3259 7.6796 34.1332L7.67963 34.133L9.77769 20.8328L9.77771 20.8326C9.85877 20.3176 10.2978 19.9411 10.8153 19.9411H14.0072C17.2035 19.9411 20.1123 19.2924 22.4156 17.6544Z" fill="#2790C3" stroke="#E8E8E8"/>
<mask id="path-5-inside-2_63_7189" fill="white">
<path d="M25.2289 8.29406C25.0053 8.22877 24.7796 8.17097 24.5522 8.12076C24.3141 8.0684 24.0745 8.02287 23.8338 7.98422C22.9722 7.84476 22.031 7.77893 21.0203 7.77893H12.494C12.2905 7.77847 12.0896 7.82416 11.9063 7.91257C11.707 8.00772 11.5339 8.15001 11.402 8.32714C11.27 8.50426 11.1833 8.71088 11.1492 8.92909L9.33688 20.4199L9.28455 20.7549C9.40376 19.9988 10.0504 19.4411 10.8163 19.4411H14.0082C20.2769 19.4411 25.1853 16.8949 26.6191 9.52935C26.6618 9.31151 26.6976 9.10041 26.7305 8.89234C26.3674 8.70066 25.9744 8.53504 25.5512 8.39466C25.4444 8.35926 25.337 8.32572 25.229 8.29406"/>
</mask>
<path d="M25.2289 8.29406C25.0053 8.22877 24.7796 8.17097 24.5522 8.12076C24.3141 8.0684 24.0745 8.02287 23.8338 7.98422C22.9722 7.84476 22.031 7.77893 21.0203 7.77893H12.494C12.2905 7.77847 12.0896 7.82416 11.9063 7.91257C11.707 8.00772 11.5339 8.15001 11.402 8.32714C11.27 8.50426 11.1833 8.71088 11.1492 8.92909L9.33688 20.4199L9.28455 20.7549C9.40376 19.9988 10.0504 19.4411 10.8163 19.4411H14.0082C20.2769 19.4411 25.1853 16.8949 26.6191 9.52935C26.6618 9.31151 26.6976 9.10041 26.7305 8.89234C26.3674 8.70066 25.9744 8.53504 25.5512 8.39466C25.4444 8.35926 25.337 8.32572 25.229 8.29406" fill="#1F264F"/>
<path d="M24.5522 8.12076L24.7678 7.14428L24.767 7.14409L24.5522 8.12076ZM23.8338 7.98422L23.674 8.97137L23.6753 8.97157L23.8338 7.98422ZM12.494 7.77893L12.4918 8.77893H12.494V7.77893ZM11.9063 7.91257L12.3371 8.81503L12.3408 8.81326L11.9063 7.91257ZM11.1492 8.92909L12.137 9.08488L12.1372 9.08344L11.1492 8.92909ZM9.33688 20.4199L8.34909 20.2641L8.34887 20.2656L9.33688 20.4199ZM9.28455 20.7549L8.29653 20.6005L10.2723 20.9106L9.28455 20.7549ZM26.6191 9.52935L25.6378 9.33706L25.6375 9.33827L26.6191 9.52935ZM26.7305 8.89234L27.7182 9.04858L27.83 8.34195L27.1973 8.00798L26.7305 8.89234ZM25.5512 8.39466L25.866 7.44551L25.8658 7.44546L25.5512 8.39466ZM25.5092 7.33414C25.2643 7.26262 25.017 7.1993 24.7678 7.14428L24.3366 9.09724C24.5423 9.14265 24.7464 9.19493 24.9486 9.25397L25.5092 7.33414ZM24.767 7.14409C24.5102 7.08764 24.2519 7.03854 23.9923 6.99686L23.6753 8.97157C23.8971 9.0072 24.118 9.04917 24.3375 9.09743L24.767 7.14409ZM23.9936 6.99706C23.0689 6.84741 22.0731 6.77893 21.0203 6.77893V8.77893C21.989 8.77893 22.8755 8.84212 23.674 8.97137L23.9936 6.99706ZM21.0203 6.77893H12.494V8.77893H21.0203V6.77893ZM12.4963 6.77894C12.1416 6.77813 11.7913 6.85778 11.4719 7.01188L12.3408 8.81326C12.3879 8.79055 12.4395 8.77881 12.4918 8.77893L12.4963 6.77894ZM11.4755 7.01012C11.1295 7.17529 10.829 7.42231 10.6 7.72978L12.2039 8.92449C12.2388 8.87772 12.2845 8.84014 12.3371 8.81502L11.4755 7.01012ZM10.6 7.72978C10.371 8.03726 10.2203 8.39593 10.1612 8.77474L12.1372 9.08344C12.1462 9.02582 12.1691 8.97126 12.2039 8.92449L10.6 7.72978ZM10.1614 8.7733L8.34909 20.2641L10.3247 20.5757L12.137 9.08488L10.1614 8.7733ZM8.34887 20.2656L8.29653 20.6005L10.2726 20.9093L10.3249 20.5743L8.34887 20.2656ZM10.2723 20.9106C10.3156 20.6363 10.547 20.4411 10.8163 20.4411V18.4411C9.5538 18.4411 8.49192 19.3613 8.29675 20.5992L10.2723 20.9106ZM10.8163 20.4411H14.0082V18.4411H10.8163V20.4411ZM14.0082 20.4411C17.2662 20.4411 20.2895 19.7808 22.7062 18.0623C25.1443 16.3286 26.8447 13.6037 27.6007 9.72043L25.6375 9.33827C24.9596 12.8205 23.489 15.0516 21.5472 16.4324C19.5842 17.8283 17.0189 18.4411 14.0082 18.4411V20.4411ZM27.6004 9.72163C27.6462 9.4879 27.6842 9.26399 27.7182 9.04858L25.7428 8.73609C25.711 8.93683 25.6773 9.13511 25.6378 9.33706L27.6004 9.72163ZM27.1973 8.00798C26.7811 7.78825 26.3367 7.60163 25.866 7.44551L25.2364 9.34381C25.6121 9.46845 25.9538 9.61308 26.2637 9.77669L27.1973 8.00798ZM25.8658 7.44546C25.748 7.4064 25.6295 7.36939 25.5104 7.33446L24.9476 9.25365C25.0444 9.28204 25.1407 9.31212 25.2365 9.34386L25.8658 7.44546Z" fill="#E8E8E8" mask="url(#path-5-inside-2_63_7189)"/>
</svg>
