<svg width="46" height="38" viewBox="0 0 46 38" fill="none" xmlns="http://www.w3.org/2000/svg">
<path d="M8.66837 12.9298C6.66796 12.9298 5.63745 11.8993 5.63745 9.89884C5.63745 7.89843 6.66796 6.86792 8.66837 6.86792H40.19C40.19 6.86792 41.4023 6.86792 41.4023 8.08029V12.9298H8.66837Z" fill="#C89005"/>
<path d="M41.4023 13.5359H8.66836C6.30424 13.5359 5.03125 12.2629 5.03125 9.89882C5.03125 7.53471 6.30424 6.26172 8.66836 6.26172H40.1899C40.9174 6.26172 42.0085 6.74667 42.0085 8.08027V12.9297C42.0085 13.2935 41.7054 13.5359 41.4023 13.5359ZM40.1899 7.47409H8.66836C6.97104 7.47409 6.24362 8.20151 6.24362 9.89882C6.24362 11.5961 6.97104 12.3236 8.66836 12.3236H40.7961V8.08027C40.7961 7.59532 40.4324 7.47409 40.1899 7.47409Z" fill="#231C1C"/>
<path d="M41.0386 22.3256C41.1598 22.9924 40.7355 23.5986 40.0687 23.7805L11.578 29.5998C10.9112 29.7211 10.305 29.2967 10.1232 28.6299L6.60731 11.4143C6.48608 10.7475 6.91041 10.1413 7.57721 9.95946L36.0679 4.14009C36.7347 4.01885 37.3409 4.44318 37.5227 5.10998L41.0386 22.3256Z" fill="#C11F29"/>
<path d="M11.3356 30.206C10.487 30.206 9.75957 29.5998 9.57771 28.7511L6.06184 11.5355C5.94061 11.0506 6.06184 10.5656 6.30432 10.1413C6.54679 9.71695 6.97112 9.47447 7.45607 9.35324L35.9467 3.53387C36.9166 3.35201 37.8865 3.9582 38.0684 4.92809L41.5842 22.1437C41.7661 23.1136 41.1599 24.0835 40.19 24.2654L11.6994 30.0847C11.5781 30.206 11.4569 30.206 11.3356 30.206ZM36.3104 4.74624H36.1892L7.69854 10.5656C7.39545 10.6262 7.15298 10.9293 7.21359 11.293L10.7295 28.5087C10.7901 28.8118 11.0932 29.0542 11.4569 28.9936L39.9476 23.1742C40.1294 23.1136 40.2506 23.053 40.3113 22.9318C40.3719 22.8105 40.4325 22.6287 40.3719 22.4468L36.856 5.23118C36.856 4.92809 36.6135 4.74624 36.3104 4.74624Z" fill="#231C1C"/>
<path d="M38.7956 11.4143C38.8562 11.8386 38.4319 12.3236 37.7651 12.4448L9.27442 18.2642C8.60762 18.3854 8.00143 18.1429 7.94082 17.7186L7.51649 15.7182C7.45587 15.2939 7.8802 14.8089 8.547 14.6877L37.0377 8.86831C37.7045 8.74707 38.3107 8.98954 38.3713 9.41387L38.7956 11.4143Z" fill="#513328"/>
<path d="M8.91088 18.9309C8.12284 18.9309 7.45603 18.5066 7.3348 17.8398L6.91047 15.9C6.72861 15.112 7.39542 14.3239 8.42593 14.1421L36.9166 8.32272C37.8865 8.14086 38.7958 8.56519 38.9776 9.35323L39.402 11.3536C39.5838 12.1417 38.917 12.9297 37.8865 13.1116L9.39582 18.9309H8.91088ZM37.4015 9.47447H37.1591L8.6684 15.2938C8.30469 15.3545 8.12284 15.5363 8.12284 15.6576L8.54717 17.5973C8.60778 17.658 8.85026 17.7186 9.15335 17.658L37.644 11.8386C38.0077 11.778 38.1896 11.5961 38.1896 11.5355L37.7653 9.59571C37.7653 9.53509 37.644 9.47447 37.4015 9.47447ZM22.3603 21.7958L27.7044 20.698L27.9487 21.8861L22.604 22.9833L22.3603 21.7958ZM19.2803 24.8922L31.7507 22.331L31.9944 23.5192L19.524 26.0803L19.2803 24.8922Z" fill="#231C1C"/>
<path d="M37.8258 31.4184C37.644 32.0852 36.9772 32.4489 36.3104 32.2065L6.72857 23.1743C6.12238 22.9925 5.75867 22.3257 5.94053 21.6588L11.275 4.26136C11.4568 3.59456 12.1236 3.23084 12.7904 3.47332L42.4328 12.5055C43.039 12.6873 43.4027 13.3541 43.2209 14.0209L37.8258 31.4184Z" fill="#B8CA43"/>
<path d="M36.6743 32.9339C36.4924 32.9339 36.3105 32.9339 36.1287 32.8732L6.54689 23.7805C6.06194 23.6592 5.69823 23.2955 5.45575 22.8712C5.21328 22.4469 5.21328 21.9619 5.33452 21.477L10.6689 4.07947C10.972 3.10958 11.9419 2.56401 12.9118 2.8671L42.5542 11.8993C43.5241 12.2023 44.0091 13.2329 43.7666 14.1421L38.4322 31.5396C38.311 32.0246 38.0079 32.3883 37.5835 32.6308C37.2804 32.8126 36.9773 32.9339 36.6743 32.9339ZM12.4269 4.01886C12.1844 4.01886 11.9419 4.20071 11.8813 4.44318L6.54689 21.8407C6.48627 22.0225 6.48627 22.1438 6.6075 22.3256C6.66812 22.4469 6.78936 22.5681 6.97122 22.6287L36.553 31.6609C36.6743 31.7215 36.8561 31.6609 36.9773 31.6002C37.0986 31.5396 37.2198 31.4184 37.2804 31.2365L42.6149 13.839C42.7361 13.5359 42.5542 13.1722 42.2511 13.1116L12.5481 4.07947C12.4875 4.01886 12.4875 4.01886 12.4269 4.01886Z" fill="#231C1C"/>
<path d="M36.2496 26.5083L39.0987 17.2337C37.8257 16.87 37.1589 15.4757 37.5226 14.2027L15.8212 7.59534C15.4575 8.86832 14.0633 9.59575 12.8509 9.23204L10.0018 18.5067C11.2748 18.8704 11.9416 20.2646 11.5779 21.5376L33.2187 28.145C33.643 26.872 34.9766 26.1446 36.2496 26.5083Z" fill="#B8CA43"/>
<path d="M33.6432 28.8724L10.8506 21.9013L11.0325 21.2951C11.1537 20.8102 11.1537 20.3252 10.9112 19.9009C10.6688 19.4766 10.305 19.1735 9.88072 19.0522L9.27454 18.8704L12.4873 8.44401L13.0935 8.62587C14.0028 8.92896 15.0333 8.38339 15.3364 7.4135L15.5182 6.80731L38.3108 13.7784L38.1289 14.3846C38.0077 14.8696 38.0077 15.3545 38.2502 15.7788C38.4926 16.2032 38.8563 16.5063 39.2807 16.6275L39.8869 16.8094L36.6741 27.2357L36.0679 27.0539C35.1586 26.7508 34.1281 27.2963 33.825 28.2662L33.6432 28.8724ZM12.3055 21.1133L32.9157 27.4176C33.4613 26.3264 34.613 25.7203 35.8254 25.8415L38.3714 17.5974C37.8864 17.2943 37.4621 16.87 37.159 16.385C36.8559 15.8395 36.7953 15.2939 36.8559 14.6877L16.2457 8.38339C15.7001 9.47452 14.4877 10.0807 13.336 9.95947L10.79 18.143C11.2749 18.4461 11.6993 18.8704 12.0024 19.3553C12.2448 19.9009 12.3661 20.5071 12.3055 21.1133Z" fill="#231C1C"/>
<path d="M22.0441 25.9755C24.0121 26.5772 26.1608 26.2993 28.0177 25.2028C29.8746 24.1063 31.2876 22.2811 31.9457 20.1287C32.6038 17.9763 32.4533 15.673 31.5271 13.7255C30.601 11.778 28.9751 10.3459 27.0072 9.74417C25.0393 9.14244 22.8905 9.4204 21.0336 10.5169C19.1767 11.6134 17.7638 13.4386 17.1056 15.591C16.4475 17.7434 16.5981 20.0467 17.5242 21.9942C18.4504 23.9417 20.0762 25.3738 22.0441 25.9755Z" fill="#E1E0A6"/>
<path d="M24.1261 26.872C23.3987 26.872 22.6106 26.7508 21.8832 26.5083C19.7616 25.8415 18.0036 24.326 16.9731 22.2044C16.0032 20.0827 15.8214 17.658 16.5488 15.3545C17.2762 13.051 18.7311 11.1112 20.7315 9.95945C22.7319 8.74708 25.0354 8.44399 27.157 9.11079C31.5822 10.4444 33.9463 15.4757 32.4914 20.2646C31.3397 24.2654 27.8238 26.872 24.1261 26.872ZM24.9141 10.0201C23.7018 10.0201 22.4894 10.3838 21.3376 11.0506C19.5797 12.0811 18.3067 13.7784 17.7005 15.7788C17.0944 17.7792 17.2156 19.9009 18.0642 21.7194C18.9129 23.538 20.3677 24.811 22.1863 25.3565C25.9446 26.5083 30.0667 24.0835 31.3397 19.9009C32.6127 15.7182 30.5516 11.4143 26.7933 10.2625C26.2477 10.1413 25.5809 10.0201 24.9141 10.0201Z" fill="#231C1C"/>
<path d="M21.4666 25.7984L26.4227 9.56482L27.5823 9.91883L22.6262 26.1524L21.4666 25.7984Z" fill="#231C1C"/>
<path d="M23.6411 24.3866C23.2774 24.3866 22.9743 24.326 22.6106 24.2048C21.6407 23.9017 20.8526 23.2349 20.4283 22.3256C20.0646 21.4769 20.004 20.5677 20.2464 19.719L21.3982 20.0827C21.2163 20.6889 21.2769 21.2951 21.5194 21.8406C21.8225 22.4468 22.3075 22.9318 22.9743 23.1136C24.2473 23.4773 25.5809 22.7499 25.9446 21.4769C26.3083 20.204 25.6415 18.8703 24.3685 18.446C22.4893 17.8398 21.3982 15.8394 22.0044 13.8996C22.3075 12.9904 22.9136 12.2023 23.7623 11.778C24.611 11.293 25.5809 11.2324 26.4901 11.4749C27.3994 11.778 28.1875 12.3842 28.6118 13.2328C29.0361 14.0815 29.1573 15.0514 28.8543 16.0213L27.7025 15.6576C27.8844 15.0514 27.8237 14.3846 27.5206 13.839C27.2176 13.2934 26.7326 12.8691 26.1264 12.6873C25.5202 12.5054 24.8534 12.566 24.3079 12.8691C23.7623 13.1722 23.338 13.6572 23.1561 14.324C22.7924 15.5969 23.4592 16.9306 24.7322 17.3549C26.6114 17.9611 27.7025 19.9615 27.0963 21.9013C26.6114 23.3561 25.1565 24.3866 23.6411 24.3866Z" fill="#231C1C"/>
<path d="M43.2209 35.9648C43.2209 36.6316 42.6753 37.1772 42.0085 37.1772H6.84982C6.18302 37.1772 5.63745 36.6316 5.63745 35.9648V9.89886C5.63745 11.7174 6.84982 12.9298 8.66837 12.9298H42.0085C42.6753 12.9298 43.2209 13.4754 43.2209 14.1422V35.9648Z" fill="#EEBE00"/>
<path d="M42.0085 37.7833H6.8498C5.81929 37.7833 5.03125 36.9953 5.03125 35.9648V9.89885C5.03125 9.53514 5.27372 9.29266 5.63743 9.29266C6.00115 9.29266 6.24362 9.53514 6.24362 9.89885C6.24362 11.3537 7.21351 12.3236 8.66836 12.3236H42.0085C43.039 12.3236 43.8271 13.1116 43.8271 14.1421V35.9648C43.8271 36.9953 42.9784 37.7833 42.0085 37.7833ZM6.24362 12.6873V35.9648C6.24362 36.3285 6.48609 36.571 6.8498 36.571H42.0085C42.3722 36.571 42.6147 36.3285 42.6147 35.9648V14.1421C42.6147 13.7784 42.3722 13.536 42.0085 13.536H8.66836C7.69846 13.536 6.8498 13.2329 6.24362 12.6873Z" fill="#231C1C"/>
<path d="M43.2209 28.0844H36.1286C34.6737 28.0844 33.522 26.9932 33.522 25.6596V24.4473C33.522 23.1137 34.6737 22.0225 36.1286 22.0225H43.2815V28.0844H43.2209Z" fill="#C89005"/>
<path d="M43.2209 28.6905H36.1286C34.3706 28.6905 32.9158 27.3569 32.9158 25.6596V24.4472C32.9158 22.7499 34.3706 21.4163 36.1286 21.4163H43.2815C43.6452 21.4163 43.8877 21.6588 43.8877 22.0225V28.0843C43.8271 28.4481 43.5846 28.6905 43.2209 28.6905ZM36.1286 22.6287C35.0374 22.6287 34.1281 23.4167 34.1281 24.4472V25.6596C34.1281 26.6901 35.0374 27.4782 36.1286 27.4782H42.6753V22.6287H36.1286Z" fill="#231C1C"/>
<path d="M8.78943 15.3545H11.6991V16.5669H8.78943V15.3545Z" fill="#231C1C"/>
<path d="M13.6389 15.3545H16.5486V16.5669H13.6389V15.3545Z" fill="#231C1C"/>
<path d="M18.4884 15.3545H21.3981V16.5669H18.4884V15.3545Z" fill="#231C1C"/>
<path d="M23.3379 15.3545H26.2476V16.5669H23.3379V15.3545Z" fill="#231C1C"/>
<path d="M28.1874 15.3545H31.0971V16.5669H28.1874V15.3545Z" fill="#231C1C"/>
<path d="M33.0369 15.3545H35.9466V16.5669H33.0369V15.3545Z" fill="#231C1C"/>
<path d="M37.8864 15.3545H40.796V16.5669H37.8864V15.3545Z" fill="#231C1C"/>
<path d="M8.78943 33.54H11.6991V34.7524H8.78943V33.54Z" fill="#231C1C"/>
<path d="M13.6389 33.54H16.5486V34.7524H13.6389V33.54Z" fill="#231C1C"/>
<path d="M18.4884 33.54H21.3981V34.7524H18.4884V33.54Z" fill="#231C1C"/>
<path d="M23.3379 33.54H26.2476V34.7524H23.3379V33.54Z" fill="#231C1C"/>
<path d="M28.1874 33.54H31.0971V34.7524H28.1874V33.54Z" fill="#231C1C"/>
<path d="M33.0369 33.54H35.9466V34.7524H33.0369V33.54Z" fill="#231C1C"/>
<path d="M37.8864 33.54H40.796V34.7524H37.8864V33.54Z" fill="#231C1C"/>
<path d="M35.3405 25.0534C35.3405 25.375 35.4682 25.6833 35.6955 25.9107C35.9229 26.1381 36.2313 26.2658 36.5528 26.2658C36.8744 26.2658 37.1827 26.1381 37.4101 25.9107C37.6375 25.6833 37.7652 25.375 37.7652 25.0534C37.7652 24.7319 37.6375 24.4235 37.4101 24.1962C37.1827 23.9688 36.8744 23.8411 36.5528 23.8411C36.2313 23.8411 35.9229 23.9688 35.6955 24.1962C35.4682 24.4235 35.3405 24.7319 35.3405 25.0534Z" fill="#231C1C"/>
</svg>
